HIERARCHY
ROOT Hips
{
	OFFSET 0.000000 0.000000 0.000000
	CHANNELS 6 Xposition Yposition Zposition Xrotation Yrotation Zrotation
	JOINT LeftUpLeg_virtual
	{
		OFFSET 0.000000 0.000000 0.000000
		CHANNELS 3 Xrotation Yrotation Zrotation
		JOINT LeftUpLeg
		{
			OFFSET 10.205400 -3.823500 0.155100
			CHANNELS 3 Xrotation Yrotation Zrotation
			JOINT LeftLeg
			{
				OFFSET 0.708757 -12.982077 0.567790
				CHANNELS 3 Xrotation Yrotation Zrotation
				JOINT LeftFoot
				{
					OFFSET -0.708756 -10.717838 -2.184338
					CHANNELS 3 Xrotation Yrotation Zrotation
					JOINT LeftToeBase
					{
						OFFSET 0.108149 -7.191104 7.560241
						CHANNELS 3 Xrotation Yrotation Zrotation
						JOINT LeftToe_End
						{
							OFFSET 0.070230 0.081724 4.490308
							CHANNELS 3 Xrotation Yrotation Zrotation
							End Site
							{
								OFFSET 0 0 0
							}
						}
					}
				}
			}
		}
	}
	JOINT RightUpLeg_virtual
	{
		OFFSET 0.000000 0.000000 0.000000
		CHANNELS 3 Xrotation Yrotation Zrotation
		JOINT RightUpLeg
		{
			OFFSET -10.205400 -3.823500 0.005500
			CHANNELS 3 Xrotation Yrotation Zrotation
			JOINT RightLeg
			{
				OFFSET -0.708756 -12.982134 0.610632
				CHANNELS 3 Xrotation Yrotation Zrotation
				JOINT RightFoot
				{
					OFFSET 0.708754 -10.717769 -1.945823
					CHANNELS 3 Xrotation Yrotation Zrotation
					JOINT RightToeBase
					{
						OFFSET -0.108140 -7.191069 7.372968
						CHANNELS 3 Xrotation Yrotation Zrotation
						JOINT RightToe_End
						{
							OFFSET -0.070227 0.081735 4.479403
							CHANNELS 3 Xrotation Yrotation Zrotation
							End Site
							{
								OFFSET 0 0 0
							}
						}
					}
				}
			}
		}
	}
	JOINT Spine_virtual
	{
		OFFSET 0.000000 0.000000 0.000000
		CHANNELS 3 Xrotation Yrotation Zrotation
		JOINT Spine
		{
			OFFSET 0.000000 6.876099 0.125700
			CHANNELS 3 Xrotation Yrotation Zrotation
			JOINT Spine1
			{
				OFFSET 0.000000 5.730043 0.104720
				CHANNELS 3 Xrotation Yrotation Zrotation
				JOINT Spine1_split
				{
					OFFSET 0.000000 5.730043 0.104720
					CHANNELS 3 Xrotation Yrotation Zrotation
					JOINT Spine2
					{
						OFFSET 0.000000 5.730043 0.104720
						CHANNELS 3 Xrotation Yrotation Zrotation
						JOINT Neck_virtual
						{
							OFFSET 0.000000 0.000000 0.000000
							CHANNELS 3 Xrotation Yrotation Zrotation
							JOINT Neck
							{
								OFFSET 0.000000 10.314075 0.188496
								CHANNELS 3 Xrotation Yrotation Zrotation
								JOINT Head
								{
									OFFSET 0.000000 7.643700 -2.377400
									CHANNELS 3 Xrotation Yrotation Zrotation
									JOINT HeadTop_End
									{
										OFFSET 0.000000 43.788605 -13.619600
										CHANNELS 3 Xrotation Yrotation Zrotation
										End Site
										{
											OFFSET 0 0 0
										}
									}
								}
							}
						}
						JOINT LeftShoulder_virtual
						{
							OFFSET 0.000000 0.000000 0.000000
							CHANNELS 3 Xrotation Yrotation Zrotation
							JOINT LeftShoulder
							{
								OFFSET 2.196100 4.412489 0.087492
								CHANNELS 3 Xrotation Yrotation Zrotation
								JOINT LeftShoulder_split
								{
									OFFSET 2.196100 4.412489 0.087492
									CHANNELS 3 Xrotation Yrotation Zrotation
									JOINT LeftArm
									{
										OFFSET 8.771219 -2.981674 -0.026999
										CHANNELS 3 Xrotation Yrotation Zrotation
										JOINT LeftForeArm
										{
											OFFSET 8.512804 0.000000 -0.000000
											CHANNELS 3 Xrotation Yrotation Zrotation
											JOINT LeftHand
											{
												OFFSET 18.484802 0.000000 -0.000000
												CHANNELS 3 Xrotation Yrotation Zrotation
												End Site
												{
													OFFSET 0 0 0
												}
											}
										}
									}
								}
							}
						}
						JOINT RightShoulder_virtual
						{
							OFFSET 0.000000 0.000000 0.000000
							CHANNELS 3 Xrotation Yrotation Zrotation
							JOINT RightShoulder
							{
								OFFSET -2.196100 4.412496 0.070690
								CHANNELS 3 Xrotation Yrotation Zrotation
								JOINT RightShoulder_split
								{
									OFFSET -2.196100 4.412496 0.070690
									CHANNELS 3 Xrotation Yrotation Zrotation
									JOINT RightArm
									{
										OFFSET -8.771282 -2.981682 -0.094208
										CHANNELS 3 Xrotation Yrotation Zrotation
										JOINT RightForeArm
										{
											OFFSET -8.494598 0.000000 0.000000
											CHANNELS 3 Xrotation Yrotation Zrotation
											JOINT RightHand
											{
												OFFSET -18.483803 0.000000 0.000001
												CHANNELS 3 Xrotation Yrotation Zrotation
												End Site
												{
													OFFSET 0 0 0
												}
											}
										}
									}
								}
							}
						}
					}
				}
			}
		}
	}
}
MOTION
Frames: 6
Frame Time: 0.03333333
1.525632 32.015030 -3.063427 0.000000 0.000000 0.000000 7.879550 -9.374371 2.365462 -40.616406 6.793315 13.416968 30.641861 -1.735971 2.751463 1.302106 2.900813 -17.416796 6.569409 -3.083053 2.636964 0.000000 0.000000 0.000000 8.129654 -10.396062 2.527462 -5.726480 -15.559733 -14.788558 23.029371 7.518959 2.903847 -28.522762 -15.378591 20.113584 5.227866 9.127481 -6.829592 0.000000 0.000000 0.000000 7.671155 -2.325041 1.788217 14.451007 4.100412 -0.330219 4.622298 -3.819252 -0.052769 0.129602 -0.061055 0.029691 0.000000 0.000000 0.000000 6.538655 -0.820395 0.940995 -18.777672 8.192740 1.022021 -15.846589 -29.219573 -21.373842 0.000000 0.000000 0.000000 5.718034 -2.703626 -0.567639 4.877733 -13.831954 1.363526 4.903445 -0.496661 -0.240448 -32.109245 -4.699293 -86.188559 13.446374 -44.206449 6.893118 0.000000 0.000000 0.000000 7.973218 -2.209828 0.857222 4.921320 18.602753 -17.250611 0.852810 3.974506 -2.076487 -38.281014 17.544338 88.982694 -34.759891 47.676964 30.317810 0.000000 0.000000 0.000000 
1.528599 32.002571 -3.073399 0.000000 0.000000 0.000000 7.827059 -9.613310 2.398718 -40.418372 6.635408 13.458307 30.838174 -1.774299 2.713923 1.176014 3.075290 -17.323247 6.630792 -3.102883 2.718602 0.000000 0.000000 0.000000 8.052484 -10.721308 2.551477 -5.936255 -15.528198 -14.847757 23.184814 7.543520 2.925405 -28.552752 -15.324767 19.946452 5.655774 9.093735 -6.769886 0.000000 0.000000 0.000000 7.507659 -2.605146 1.801650 14.467688 4.084395 -0.291435 4.521752 -3.828036 0.008869 0.101039 -0.052060 0.018408 0.000000 0.000000 0.000000 6.571071 -0.778971 1.024732 -18.644029 8.261371 0.847463 -15.709389 -29.319922 -21.562496 0.000000 0.000000 0.000000 5.624942 -2.681262 -0.552929 4.998478 -13.602346 1.159976 4.049441 -0.482371 -0.038977 -31.975981 -4.633650 -85.661453 12.903080 -44.846097 6.542277 0.000000 0.000000 0.000000 7.858711 -2.194210 0.957655 4.915822 18.465266 -17.402216 0.831257 3.775181 -2.221117 -38.762580 16.933873 89.037513 -35.120884 47.741851 30.577459 0.000000 0.000000 0.000000 
1.542315 31.975512 -3.106705 0.000000 0.000000 0.000000 7.709497 -10.328399 2.494045 -40.034648 6.643261 13.600882 31.050211 -1.691495 2.743894 0.840299 3.534800 -17.315455 6.678944 -3.134731 2.716355 0.000000 0.000000 0.000000 7.943292 -11.526139 2.652188 -6.589205 -15.319790 -15.023807 23.590831 7.723987 2.895890 -28.402840 -15.125531 19.961113 6.004994 9.062348 -7.122846 0.000000 0.000000 0.000000 7.320015 -3.169512 1.831609 14.517208 4.077346 -0.218804 4.312682 -3.778960 0.120570 0.080008 -0.024868 0.013797 0.000000 0.000000 0.000000 6.512756 -0.703948 1.164800 -18.286740 8.500184 0.516888 -15.344013 -29.397967 -21.650622 0.000000 0.000000 0.000000 5.435968 -2.615282 -0.520239 5.117696 -13.452571 0.631640 3.436275 -0.686256 0.057190 -31.971405 -4.934772 -84.564395 13.473004 -45.456220 7.014558 0.000000 0.000000 0.000000 7.698437 -2.122652 1.114359 4.898145 18.131871 -17.509321 0.807255 3.740522 -2.322574 -39.465328 16.993033 88.908811 -35.067083 47.581994 30.224256 0.000000 0.000000 0.000000 
1.553671 31.937405 -3.169054 0.000000 0.000000 0.000000 7.537208 -11.400889 2.645632 -39.506555 6.789561 13.806397 31.254502 -1.548370 2.829093 0.352706 4.214868 -17.436512 6.667814 -3.180229 2.641105 0.000000 0.000000 0.000000 7.834377 -12.645090 2.826446 -7.568244 -14.944457 -15.277178 24.203002 8.040146 2.806025 -28.137171 -14.779633 20.074478 6.293359 9.022195 -7.796129 0.000000 0.000000 0.000000 7.113048 -3.923538 1.881451 14.626073 4.084080 -0.134408 4.018998 -3.677195 0.264374 0.081730 0.008164 0.019733 0.000000 0.000000 0.000000 6.374275 -0.593785 1.338688 -17.747307 8.844405 0.095517 -14.755389 -29.510372 -21.561384 0.000000 0.000000 0.000000 5.177670 -2.507258 -0.468689 5.225589 -13.389407 -0.137031 3.157936 -1.117583 0.119834 -32.165417 -5.766093 -83.237876 15.015558 -45.743607 8.153153 0.000000 0.000000 0.000000 7.507497 -1.991786 1.306546 4.889745 17.654796 -17.620918 0.726096 3.878861 -2.271597 -40.268804 17.752724 88.691960 -34.622007 47.272108 29.318498 0.000000 0.000000 0.000000 
1.559808 31.895021 -3.257698 0.000000 0.000000 0.000000 7.329774 -12.697948 2.838338 -38.879868 7.029233 14.048551 31.463867 -1.408943 2.953190 -0.146831 5.039657 -17.740487 6.602922 -3.242206 2.508862 0.000000 0.000000 0.000000 7.718933 -13.923514 3.053154 -8.716735 -14.437932 -15.562721 24.938557 8.426345 2.657718 -27.855897 -14.327664 20.097321 6.659007 8.940912 -8.648316 0.000000 0.000000 0.000000 6.890028 -4.788233 1.953460 14.804170 4.104924 -0.068056 3.661185 -3.532115 0.421170 0.104334 0.049516 0.015793 0.000000 0.000000 0.000000 6.176709 -0.449322 1.522895 -17.132937 9.231466 -0.342983 -13.990633 -29.735696 -21.236445 0.000000 0.000000 0.000000 4.863401 -2.368953 -0.393864 5.306716 -13.420850 -1.015300 3.156339 -1.660045 0.238337 -32.633940 -7.224444 -81.943637 17.186035 -45.649791 9.694420 0.000000 0.000000 0.000000 7.277456 -1.820204 1.502596 4.915165 17.094922 -17.812150 0.681370 4.019171 -2.131083 -41.051404 19.125634 88.434475 -33.872722 46.924216 27.990406 0.000000 0.000000 0.000000 
1.559412 31.853544 -3.365923 0.000000 0.000000 0.000000 7.107437 -14.079720 3.060764 -38.238695 7.316130 14.314242 31.680231 -1.314685 3.082831 -0.544784 5.928065 -18.251160 6.506397 -3.320168 2.335187 0.000000 0.000000 0.000000 7.590843 -15.254504 3.314082 -9.939521 -13.859074 -15.847034 25.716852 8.810423 2.473614 -27.594656 -13.807058 19.949647 7.089814 8.804922 -9.549680 0.000000 0.000000 0.000000 6.655248 -5.637706 2.055740 15.043102 4.137303 -0.043147 3.238272 -3.361249 0.568993 0.134343 0.086278 0.006865 0.000000 0.000000 0.000000 5.937054 -0.289083 1.687337 -16.547685 9.611219 -0.755379 -13.104329 -30.150221 -20.627702 0.000000 0.000000 0.000000 4.518429 -2.218216 -0.295678 5.363618 -13.543073 -1.866061 3.394504 -2.045730 0.429752 -33.314138 -9.174781 -80.805564 19.564862 -45.237538 11.331476 0.000000 0.000000 0.000000 7.011625 -1.635736 1.672672 4.995414 16.527490 -18.174310 0.704143 4.209426 -1.984168 -41.681557 20.936417 88.189162 -32.905553 46.671977 26.416498 0.000000 0.000000 0.000000 
